<svg xmlns="http://www.w3.org/2000/svg" viewBox="0 0 73.91 59.83"><defs><style>.cls-1{fill:#e3000e;}.cls-2{fill:#04953f;}.cls-3{fill:#bf0013;opacity:0.51;}</style></defs><g id="Capa_2" data-name="Capa 2"><g id="Capa_2-2" data-name="Capa 2"><path class="cls-1" d="M59.82,26.79c0,21.38-13.39,33-29.91,33A29.92,29.92,0,1,1,54.16,12.4C49.8,9.35,35.67,4.8,25,11.08h0l-.13.08-.35.21c-.23.14-.45.29-.67.44h0C14,18.76,16.15,33.66,16.15,33.66s1.38,13.58,13.76,13.58,11-9.31,11-9.31h-11v-2.1a9,9,0,0,1,9-9Z"/><path class="cls-2" d="M41.88,10.82s10.18,1.4,15.52,6.69c0,0,6.29-11.36,16.51-16.88,0,0-14.74,15.4-14.74,24.1H55.49S56.07,16.33,41.88,10.82Z"/><path class="cls-3" d="M54.16,12.4C49.8,9.35,35.67,4.8,25,11.08h0l-.13.08c-.35.21-.69.43-1,.65h0C3.07,25.45,8,50.31,8,50.31A29.92,29.92,0,1,1,54.16,12.4Z"/></g></g></svg>