<svg xmlns="http://www.w3.org/2000/svg" viewBox="0 0 607.48 71.82"><defs><style>.cls-1{opacity:0.12;}.cls-2{fill:#ff3b3b;}.cls-3{fill:#fc3030;}.cls-4{font-size:30.29px;fill:#fff;font-family:Montserrat-ExtraBold, Montserrat;font-weight:800;}.cls-5{letter-spacing:-0.06em;}.cls-6{fill:#ffd2d2;}</style></defs><g id="Capa_2" data-name="Capa 2"><g id="Capa_1-2" data-name="Capa 1"><path class="cls-1" d="M0,0,4,10.34C18.21,47.57,51.63,71.82,88.67,71.82H519.41C560.15,71.82,596,42.57,607.48,0H0Z"/><path class="cls-2" d="M0,0,4,9.5A91.79,91.79,0,0,0,88.67,66H519.41A91.79,91.79,0,0,0,607.48,0H0Z"/><path class="cls-3" d="M37.77,0l3.47,9.5C53.72,43.69,83,66,115.42,66H492.59c35.68,0,67.09-26.87,77.12-66H37.77Z"/><text class="cls-4" transform="translate(153.87 35.91)">GENARO <tspan class="cls-5" x="145.96" y="0">V</tspan><tspan x="166.86" y="0">AZQUEZ</tspan></text><path class="cls-6" d="M222.25,49.8a1.12,1.12,0,0,1,1.14-1.19,1.13,1.13,0,0,1,1.14,1.19A1.12,1.12,0,0,1,223.39,51,1.11,1.11,0,0,1,222.25,49.8Zm0,9.24V56.42l.4-4.18h1.38l.4,4.18V59Z"/><path class="cls-6" d="M232.26,53.4a1.8,1.8,0,0,1-2.06,1.89h-1v1.47H228V51.61h2.19C231.51,51.61,232.26,52.26,232.26,53.4Zm-1.1,0c0-.57-.37-.86-1-.86h-1v1.75h1C230.79,54.32,231.16,54,231.16,53.43Z"/><path class="cls-6" d="M238.26,55.76h-2.39l-.4,1h-1.2l2.23-5.15h1.2l2.2,5.15h-1.24Zm-.38-.94-.81-2-.82,2Z"/><path class="cls-6" d="M245.83,56.76,245,55.29h-1.19v1.47h-1.16V51.61h2.24c1.35,0,2.11.65,2.11,1.79a1.7,1.7,0,0,1-1,1.66l1.09,1.7Zm-2-2.44h1.08c.64,0,1-.3,1-.89s-.37-.86-1-.86h-1.08Z"/><path class="cls-6" d="M253.61,55.76h-2.38l-.41,1h-1.2l2.24-5.15h1.2l2.2,5.15H254Zm-.37-.94-.81-2-.82,2Z"/><path class="cls-6" d="M264.23,52.55c-.39,0-.65.14-.65.42,0,1,2.74.42,2.74,2.27,0,1-.88,1.56-2,1.56A3.66,3.66,0,0,1,262,56l.47-.95a3.05,3.05,0,0,0,1.82.77c.48,0,.77-.17.77-.49,0-1-2.75-.4-2.75-2.23,0-.93.81-1.52,2-1.52a3.69,3.69,0,0,1,2,.56l-.45,1A3.69,3.69,0,0,0,264.23,52.55Z"/><path class="cls-6" d="M273.28,51.61v1h-2.77v1.12H273v1h-2.49V55.8h2.85v1h-4V51.61Z"/><path class="cls-6" d="M280,54.16h1v2a3.82,3.82,0,0,1-2.09.67,2.62,2.62,0,1,1,.06-5.24,3.27,3.27,0,0,1,2.07.75l-.65.83a2.2,2.2,0,0,0-1.42-.57,1.61,1.61,0,1,0,0,3.22,2.34,2.34,0,0,0,1-.28Z"/><path class="cls-6" d="M286.44,55.8a1.1,1.1,0,0,0,1.15-1.2v-3h1.16v3a2.33,2.33,0,0,1-4.65,0v-3h1.16v3A1.12,1.12,0,0,0,286.44,55.8Z"/><path class="cls-6" d="M293.17,51.61v5.15H292V51.61Z"/><path class="cls-6" d="M299.69,56.76l-.81-1.47h-1.19v1.47h-1.16V51.61h2.24c1.34,0,2.11.65,2.11,1.79a1.69,1.69,0,0,1-1,1.66l1.1,1.7Zm-2-2.44h1.08c.64,0,1-.3,1-.89s-.36-.86-1-.86h-1.08Z"/><path class="cls-6" d="M312.3,51.61v1h-1.57v4.17h-1.17V52.59H308v-1Z"/><path class="cls-6" d="M318.31,56.76l-.82-1.47h-1.18v1.47h-1.16V51.61h2.23c1.35,0,2.12.65,2.12,1.79a1.69,1.69,0,0,1-1,1.66l1.1,1.7Zm-2-2.44h1.07c.64,0,1-.3,1-.89s-.37-.86-1-.86h-1.07Z"/><path class="cls-6" d="M326.1,55.76h-2.39l-.4,1h-1.2l2.23-5.15h1.2l2.21,5.15H326.5Zm-.38-.94-.81-2-.82,2Z"/><path class="cls-6" d="M334.71,52.9a1.14,1.14,0,0,1-.89,1.13,1.26,1.26,0,0,1,1.08,1.3c0,.89-.75,1.43-1.95,1.43H330.5V51.61h2.37C334,51.61,334.71,52.1,334.71,52.9Zm-1.19.21c0-.35-.26-.56-.71-.55h-1.14v1.12h1.14C333.26,53.68,333.52,53.47,333.52,53.11Zm.18,2.08c0-.38-.34-.61-.89-.6h-1.14v1.22h1.14C333.36,55.81,333.7,55.58,333.7,55.19Z"/><path class="cls-6" d="M341.36,55.76H339l-.41,1h-1.2l2.24-5.15h1.2l2.2,5.15h-1.24Zm-.37-.94-.81-2-.82,2Z"/><path class="cls-6" d="M346.86,56.81a2.16,2.16,0,0,1-1.69-.8l.54-.82a1.62,1.62,0,0,0,1.09.57.6.6,0,0,0,.62-.68V52.59h-1.78v-1h2.95v3.5A1.57,1.57,0,0,1,346.86,56.81Z"/><path class="cls-6" d="M355.1,55.76h-2.39l-.4,1h-1.2l2.24-5.15h1.2l2.2,5.15H355.5Zm-.38-.94-.81-2-.81,2Z"/><path class="cls-6" d="M360.57,51.61l2.5,3.31V51.61h1.1v5.15h-1.06l-2.49-3.3v3.3h-1.11V51.61Z"/><path class="cls-6" d="M372.42,54.18a2.55,2.55,0,0,1-2.75,2.58h-2.14V51.61h2.18A2.52,2.52,0,0,1,372.42,54.18Zm-1.18,0a1.52,1.52,0,0,0-1.55-1.6h-1v3.19h1.05A1.49,1.49,0,0,0,371.24,54.19Z"/><path class="cls-6" d="M380.44,54.18a2.77,2.77,0,1,1-2.77-2.61A2.65,2.65,0,0,1,380.44,54.18Zm-4.34,0a1.61,1.61,0,0,0,1.59,1.62,1.58,1.58,0,0,0,1.56-1.62,1.56,1.56,0,0,0-1.56-1.59A1.58,1.58,0,0,0,376.1,54.18Z"/><path class="cls-6" d="M386.82,57.44a1,1,0,0,1-1,1.06,1,1,0,0,1-1-1.06,1,1,0,0,1,1-1A1,1,0,0,1,386.82,57.44Zm0-8.3V51.5l-.36,3.75H385.2l-.36-3.75V49.14Z"/></g></g></svg>