<svg xmlns="http://www.w3.org/2000/svg" xmlns:xlink="http://www.w3.org/1999/xlink" preserveAspectRatio="xMidYMid meet" width="1637" height="1500" viewBox="0 0 1637 1500" style="width:100%;height:100%"><defs><animate repeatCount="indefinite" dur="3.2166667s" begin="0s" xlink:href="#_R_G_L_1_G_D_0_P_0" fill="freeze" attributeName="fill" from="#aa0303" to="#aa0303" keyTimes="0;0.3212435;0.492228;0.6891192;1" values="#aa0303;#ff0000;#c50404;#ff0000;#cc0606" keySplines="0.811 0.324 0.27 0.613;1 0 1 1;0.167 0.079 1 1;0.167 0 1 1" calcMode="spline"/><animateTransform repeatCount="indefinite" dur="3.2166667s" begin="0s" xlink:href="#_R_G_L_1_G" fill="freeze" attributeName="transform" from="180" to="-180" type="rotate" additive="sum" keyTimes="0;0.1139896;0.7927461;1" values="180;0;0;-180" keySplines="0.167 0.167 0 0.898;0 0 0.833 1;1 0 0.965 0.879" calcMode="spline"/><animateTransform repeatCount="indefinite" dur="3.2166667s" begin="0s" xlink:href="#_R_G_L_1_G" fill="freeze" attributeName="transform" from="0 0" to="0 0" type="scale" additive="sum" keyTimes="0;0.253886;0.492228;0.7772021;1" values="0 0;2.52 2.52;2 2;2.52 2.52;0 0" keySplines="0.471 0.332 0.158 0.909;0 0 0.683 0;0 0 0.272 1;0 0 0.822 0" calcMode="spline"/><animateTransform repeatCount="indefinite" dur="3.2166667s" begin="0s" xlink:href="#_R_G_L_1_G" fill="freeze" attributeName="transform" from="-211.394 -199.672" to="-211.394 -199.672" type="translate" additive="sum" keyTimes="0;1" values="-211.394 -199.672;-211.394 -199.672" keySplines="0 0 1 1" calcMode="spline"/><animateTransform repeatCount="indefinite" dur="3.2166667s" begin="0s" xlink:href="#_R_G_L_0_G" fill="freeze" attributeName="transform" from="0 0" to="0 0" type="scale" additive="sum" keyTimes="0;0.1295337;0.1709845;0.865285;0.9533679;1" values="0 0;0 0;0.53295 0.53295;0.53295 0.53295;0 0;0 0" keySplines="0.918 0.452 0 0.626;0.918 0.452 0 0.626;0 0 0.833 1;0.167 0 0.833 1;0 0 0 0" calcMode="spline"/><animateTransform repeatCount="indefinite" dur="3.2166667s" begin="0s" xlink:href="#_R_G_L_0_G" fill="freeze" attributeName="transform" from="118.434 -386.407" to="118.434 -386.407" type="translate" additive="sum" keyTimes="0;1" values="118.434 -386.407;118.434 -386.407" keySplines="0 0 1 1" calcMode="spline"/><animateTransform repeatCount="indefinite" dur="3.2166667s" begin="0s" xlink:href="#_R_G_L_0_G_N_2_T_0" fill="freeze" attributeName="transform" from="180" to="-180" type="rotate" additive="sum" keyTimes="0;0.1139896;0.7927461;1" values="180;0;0;-180" keySplines="0.167 0.167 0 0.898;0 0 0.833 1;1 0 0.965 0.879" calcMode="spline"/><animateTransform repeatCount="indefinite" dur="3.2166667s" begin="0s" xlink:href="#_R_G_L_0_G_N_2_T_0" fill="freeze" attributeName="transform" from="0 0" to="0 0" type="scale" additive="sum" keyTimes="0;0.253886;0.492228;0.7772021;1" values="0 0;2.52 2.52;2 2;2.52 2.52;0 0" keySplines="0.471 0.332 0.158 0.909;0 0 0.683 0;0 0 0.272 1;0 0 0.822 0" calcMode="spline"/><animateTransform repeatCount="indefinite" dur="3.2166667s" begin="0s" xlink:href="#_R_G_L_0_G_N_2_T_0" fill="freeze" attributeName="transform" from="-211.394 -199.672" to="-211.394 -199.672" type="translate" additive="sum" keyTimes="0;1" values="-211.394 -199.672;-211.394 -199.672" keySplines="0 0 1 1" calcMode="spline"/><animate attributeType="XML" attributeName="opacity" dur="3s" from="0" to="1" xlink:href="#time_group"/></defs><g id="_R_G"><g id="_R_G_L_1_G" transform=" translate(840.5, 752)"><path id="_R_G_L_1_G_D_0_P_0" fill="#aa0303" fill-opacity="1" fill-rule="nonzero" d=" M393.89 179.82 C393.89,318.18 307.24,393.63 200.33,393.63 C156.39,393.63 115.88,379.01 83.46,354.35 C33.43,316.49 2.5,254.88 7.22,186.29 C13.82,90.38 91.87,12.85 187.78,6.84 C257.47,2.5 319.79,34.99 357.26,86.69 C328.59,66.63 234.76,36.6 165.64,80.03 C96.46,123.52 111.28,224.28 111.28,224.28 C111.28,224.28 120.21,312.16 200.33,312.16 C280.45,312.16 271.32,251.91 271.32,251.91 C271.32,251.91 200.33,251.91 200.33,251.91 C200.33,251.91 200.33,238.32 200.33,238.32 C200.33,206.03 226.54,179.82 258.83,179.82 C258.83,179.82 393.89,179.82 393.89,179.82z "/></g><g id="_R_G_L_0_G_N_2_T_0" transform=" translate(840.5, 752)"><g id="_R_G_L_0_G" transform=" translate(211.394, 199.672) rotate(0.792)"><path id="_R_G_L_0_G_D_0_P_0" fill="#0a8f10" fill-opacity="1" fill-rule="nonzero" d=" M2.5 137.96 C2.5,137.96 137.78,156.49 208.74,226.72 C208.74,226.72 292.29,75.9 428.04,2.5 C428.04,2.5 232.24,207.14 232.24,322.66 C232.24,322.66 183.29,322.66 183.29,322.66 C183.29,322.66 190.97,211.14 2.5,137.96z "/></g></g></g><g id="time_group"/></svg>